<svg width="156" height="40" viewBox="0 0 156 40" fill="none" xmlns="http://www.w3.org/2000/svg">
<path fill-rule="evenodd" clip-rule="evenodd" d="M40 20C40 31.0457 31.0457 40 20 40C8.9543 40 0 31.0457 0 20C0 8.9543 8.9543 0 20 0C31.0457 0 40 8.9543 40 20ZM13.1319 22.586L10 28.9975H14.1865L16.8447 23.791C18.5937 20.3656 20.343 16.9395 22.0919 13.5126L19.7688 9.00063C17.5564 13.5282 15.344 18.0574 13.1319 22.586ZM24.1092 17.2694L20.0774 25.3899L19.9996 25.5408H23.9536C24.2122 26.1173 24.4707 26.6944 24.7293 27.2714C24.9876 27.8477 25.2458 28.4241 25.5041 29H30C28.917 26.8424 27.8337 24.6856 26.7506 22.5292L26.7396 22.5072C25.8626 20.7611 24.9857 19.0153 24.1092 17.2694Z" fill="white"/>
<path d="M82.218 21.7038L82.2353 21.7083L82.4018 21.7401L82.5014 21.7709C84.8954 22.6 86.3078 23.7591 86.3078 25.0186C86.3078 25.6131 85.6869 27.3686 83.7817 27.3686C82.7636 27.3686 80.0393 27.3686 77.6098 24.7512L74.2617 27.9293C75.8377 29.6182 77.6759 30.7763 79.7437 31.4383C81.3837 31.9354 82.7655 32 83.7817 32C85.8485 32 87.7221 31.1401 89.0665 29.6182C90.2147 28.3269 90.9037 26.6379 90.9037 25.0156C90.9037 23.3605 90.2798 21.8047 89.099 20.4796C87.9173 19.1883 86.2083 18.1634 84.0104 17.401L83.9319 17.3751C83.7603 17.3185 83.5831 17.2599 83.3539 17.2022C81.2526 16.6743 80.4326 16.0123 80.4001 14.8204C80.3656 14.0569 80.5962 13.6941 80.7914 13.4963C81.3808 12.867 82.53 12.6354 82.8257 12.6354C84.8085 12.6354 85.7605 13.2532 87.2141 14.1965L87.2579 14.2249L88.0779 14.7548L90.4759 10.8142L89.72 10.3172L89.7163 10.3148C88.0437 9.22291 86.1703 8 82.8257 8C81.6449 8 79.1819 8.49704 77.4758 10.2854C76.294 11.5439 75.7027 13.1662 75.8012 15.0192C75.8998 17.239 76.9179 19.0273 78.7561 20.252C80.059 21.1389 81.458 21.505 82.218 21.7038Z" fill="white"/>
<path fill-rule="evenodd" clip-rule="evenodd" d="M57.3201 27.2374H66.8401L68.8428 31.5418H73.9305L63.0652 8.33008H61.7189L50 31.5418H55.1537L57.3201 27.2374ZM62.2777 17.4378L64.6737 22.602H59.6846L62.2777 17.4378Z" fill="white"/>
<path d="M110.729 8.33203V12.9674H104.361V31.5417H99.7658V12.9674H93.3652V8.33203H110.729Z" fill="white"/>
<path fill-rule="evenodd" clip-rule="evenodd" d="M121.073 22.2387L125.372 31.5423H130.263L125.7 21.6095C128.097 20.519 129.739 18.1004 129.739 15.2862C129.739 11.446 126.654 8.30078 122.846 8.30078H114.18V31.5095H118.775V22.2387H121.073ZM118.774 17.6043V12.9372H122.843C124.124 12.9372 125.142 13.9949 125.142 15.2862C125.142 16.5775 124.124 17.6043 122.843 17.6043H118.774Z" fill="white"/>
<path fill-rule="evenodd" clip-rule="evenodd" d="M148.91 27.2364H139.389L137.226 31.5408H132.072L143.79 8.33008H145.135L156 31.5408H150.912L148.91 27.2364ZM146.742 22.601L144.344 17.4368L141.75 22.601H146.742Z" fill="white"/>
</svg>
